<svg xmlns="http://www.w3.org/2000/svg" width="1200" height="720" viewBox="0 0 1200 720" role="img" aria-label="司机合作真实流水核验示意">
  <rect width="1200" height="720" rx="36" fill="#0b1827"/>
  <rect x="36" y="36" width="1128" height="648" rx="28" fill="#ffffff"/>
  <rect x="72" y="76" width="1056" height="78" rx="18" fill="#f6f8fb"/>
  <text x="104" y="125" font-family="Arial, sans-serif" font-size="30" font-weight="700" fill="#162033">司机合作流水核验看板</text>
  <text x="930" y="125" font-family="Arial, sans-serif" font-size="20" font-weight="700" fill="#0b4f4a">后台可现场核验</text>

  <rect x="76" y="188" width="500" height="212" rx="22" fill="#edf2f7"/>
  <rect x="104" y="216" width="142" height="34" rx="17" fill="#0f766e"/>
  <text x="126" y="239" font-family="Arial, sans-serif" font-size="18" font-weight="700" fill="#ffffff">3月流水截图</text>
  <text x="104" y="288" font-family="Arial, sans-serif" font-size="32" font-weight="800" fill="#162033">接单流水 / 结算记录</text>
  <rect x="104" y="326" width="392" height="16" rx="8" fill="#cbd5e1"/>
  <rect x="104" y="358" width="316" height="16" rx="8" fill="#dfe5ee"/>
  <rect x="432" y="214" width="96" height="96" rx="18" fill="#ffffff"/>
  <path d="M456 268l20 20 36-52" fill="none" stroke="#0f766e" stroke-width="12" stroke-linecap="round" stroke-linejoin="round"/>

  <rect x="624" y="188" width="500" height="212" rx="22" fill="#edf2f7"/>
  <rect x="652" y="216" width="142" height="34" rx="17" fill="#c47a2c"/>
  <text x="674" y="239" font-family="Arial, sans-serif" font-size="18" font-weight="700" fill="#ffffff">4月流水截图</text>
  <text x="652" y="288" font-family="Arial, sans-serif" font-size="32" font-weight="800" fill="#162033">运单轨迹 / 平台收入</text>
  <rect x="652" y="326" width="382" height="16" rx="8" fill="#cbd5e1"/>
  <rect x="652" y="358" width="284" height="16" rx="8" fill="#dfe5ee"/>
  <rect x="980" y="214" width="96" height="96" rx="18" fill="#ffffff"/>
  <path d="M1004 268l20 20 36-52" fill="none" stroke="#c47a2c" stroke-width="12" stroke-linecap="round" stroke-linejoin="round"/>

  <rect x="76" y="438" width="1048" height="156" rx="24" fill="#162033"/>
  <text x="108" y="488" font-family="Arial, sans-serif" font-size="28" font-weight="800" fill="#ffffff">核验逻辑</text>
  <text x="108" y="536" font-family="Arial, sans-serif" font-size="24" fill="#d9e3ec">3月、4月流水截图 + 后台记录 + 交车车辆 + 路线说明，现场一起看，不靠口头承诺。</text>
  <g font-family="Arial, sans-serif" font-size="18" font-weight="700">
    <rect x="108" y="560" width="132" height="38" rx="19" fill="#0f766e"/><text x="132" y="585" fill="#fff">真实流水</text>
    <rect x="258" y="560" width="132" height="38" rx="19" fill="#0f766e"/><text x="282" y="585" fill="#fff">路线匹配</text>
    <rect x="408" y="560" width="132" height="38" rx="19" fill="#0f766e"/><text x="432" y="585" fill="#fff">交付车辆</text>
    <rect x="558" y="560" width="132" height="38" rx="19" fill="#0f766e"/><text x="582" y="585" fill="#fff">成本核算</text>
  </g>
  <text x="80" y="652" font-family="Arial, sans-serif" font-size="18" fill="#667085">注：此图为官网展示版。真实 3月、4月流水截图可在后台页面打开后替换。</text>
</svg>
